<svg viewBox="0 0 109 55" xmlns="http://www.w3.org/2000/svg"><g fill-rule="evenodd" fill="#00a497"><path d="M4.766 36.319c0-2.493-.236-3.107-.978-3.107-.625 0-1.17.269-1.756.269C.704 33.48 0 32.063 0 30.912 0 29.265.975 28 4.413 28c1.797 0 3.358.384 5.312.384 3.399 0 5.624-.384 7.731-.384 2.033 0 3.946.23 5.626 1.11 2.108 1.113 3.32 3.068 3.32 5.446 0 2.912-2.072 4.946-4.922 5.367V40c3.75.88 5.975 3.103 5.975 6.745 0 6.402-5.936 7.936-10.544 7.936-2.15 0-4.101-.385-7.263-.385-2.306 0-3.633.385-5.391.385C.975 54.68 0 53.415 0 51.767c0-1.15.704-2.57 2.032-2.57.586 0 1.13.27 1.756.27.742 0 .978-.768.978-3.106V36.32zm7.225.958c0 .92.273.92 1.873.92 3.281 0 5.118-.844 5.118-2.8 0-2.03-2.578-2.529-4.22-2.529-2.577 0-2.771.5-2.771 2.337v2.072zm0 10.082c0 1.608.819 2.223 3.905 2.223 1.952 0 4.062-.96 4.062-3.068 0-2.567-2.93-3.526-5.977-3.526-1.913 0-1.99.04-1.99 1.647v2.724z"></path><path d="M39.793 46.36c-1.737-.04-1.98.152-2.222.458-.243.347-.566 1.612-.566 2.034 0 .5.283.728.808.728.322 0 .485.038.686.038.849 0 1.981.574 1.981 2.607 0 1.419-1.132 2.492-2.707 2.492-1.74 0-2.993-.384-4.81-.384-1.78 0-3.516.384-5.255.384-1.576 0-2.708-1.15-2.708-2.684 0-1.955 1.011-2.797 1.981-2.797.443 0 .889.076 1.373.076 1.254 0 1.7-1.839 2.022-2.72l5.536-14.415C37.408 28.305 37.853 28 42.258 28c1.9 0 3.516 0 4.364.419 1.053.539 1.215.998 1.74 2.762l4.93 15.679c.525 1.607.768 2.452 1.578 2.452.444 0 .848-.076 1.212-.076.97 0 1.978.726 1.978 2.797 0 1.534-1.13 2.684-2.746 2.684-1.74 0-2.991-.384-4.81-.384-1.778 0-3.518.384-5.254.384-1.576 0-2.71-1.073-2.71-2.492 0-1.65.85-2.607 1.982-2.607.202 0 .445.04.768.04.564 0 .93-.27.93-.806 0-.27-.082-.46-.122-.69-.081-.384-.244-1.112-.445-1.42-.242-.383-.646-.383-1.252-.383h-4.608zm0-5.903c-.04.152-.121.268-.121.421 0 .308.485.498 1.536.498h1.09c1.457 0 1.779-.152 1.779-.535 0-.269-.12-.768-.202-1.037l-1.657-7.09h-.081l-2.344 7.743z"></path><path d="M57.712 36.319c0-2.493-.232-3.107-.965-3.107-.618 0-1.157.269-1.737.269-1.315 0-2.01-1.418-2.01-2.569 0-1.647.967-2.912 4.365-2.912 1.778 0 3.323.384 5.254.384 3.361 0 5.56-.384 7.647-.384 2.01 0 3.9.23 5.562 1.11 2.085 1.113 3.284 3.068 3.284 5.446 0 2.912-2.048 4.946-4.868 5.367V40c3.708.88 5.91 3.103 5.91 6.745 0 6.402-5.87 7.936-10.428 7.936-2.125 0-4.056-.385-7.185-.385-2.28 0-3.591.385-5.33.385-3.244 0-4.211-1.265-4.211-2.913 0-1.15.695-2.57 2.01-2.57.58 0 1.119.27 1.737.27.733 0 .965-.768.965-3.106V36.32zm7.148.958c0 .92.27.92 1.853.92 3.245 0 5.06-.844 5.06-2.8 0-2.03-2.55-2.529-4.172-2.529-2.549 0-2.741.5-2.741 2.337v2.072zm0 10.082c0 1.608.81 2.223 3.862 2.223 1.93 0 4.016-.96 4.016-3.068 0-2.567-2.896-3.526-5.91-3.526-1.892 0-1.968.04-1.968 1.647v2.724z"></path><path d="M92.295 39.383l2.25-3.832c.53-.881.941-1.458.941-1.992 0-1.112-1.8-.424-1.8-2.724 0-1.726 1.062-2.835 2.333-2.835 1.637 0 3.313.383 4.994.383 1.677 0 2.864-.383 4.501-.383 1.844 0 2.866 1.263 2.866 2.911 0 1.151-.738 2.569-2.128 2.569-.573 0-1.105-.192-1.679-.192-.45 0-.777.079-1.104.424-.452.497-.942 1.263-1.352 1.839l-5.034 7.512c-1.022 1.534-1.31 2.109-1.31 2.76v2.264c0 .842.532 1.377 1.391 1.377.82 0 1.596-.266 2.374-.266 1.392 0 2.13 1.417 2.13 2.568 0 1.647-1.023 2.913-2.866 2.913-2.046 0-3.439-.385-5.688-.385-2.089 0-4.137.385-6.184.385-3.07 0-4.092-1.266-4.092-2.913 0-1.151.735-2.568 2.13-2.568.818 0 1.595.266 2.412.266.696 0 1.145-.382 1.145-1.416v-1.495c-.038-1.304-.324-1.687-1.35-3.26L82.43 35.97c-.328-.498-1.025-1.646-1.477-2.107-.326-.345-.694-.497-1.185-.497-.571 0-1.063.113-1.638.113-1.392 0-2.13-1.418-2.13-2.569 0-1.647 1.025-2.91 3.072-2.91 1.637 0 3.316.383 4.992.383 1.517 0 2.866-.383 4.503-.383 1.883 0 2.703 1.379 2.703 3.027 0 2.069-1.924 1.494-1.924 2.532 0 .42.287.956.86 1.992l2.089 3.832zM3.103 6.103c0-1.478-.06-2.1-.553-2.1-.306 0-.612.208-1.012.208C.526 4.211.19 3.413.19 2.525c0-1.153.52-2.07 1.808-2.07.798 0 1.627.297 2.455.297.921 0 1.81-.296 2.7-.296.735 0 1.012.444 1.012 1.596v5.085h.062c.95-1.3 2.454-1.98 4.233-1.98 4.416 0 5.982 4.316 5.982 7.924 0 4.05-1.962 8.336-6.749 8.336-2.025 0-3.866-.71-4.94-2.72l-.06.06.092.738c0 .947-.829 1.39-1.718 1.39-1.627 0-1.964-.74-1.964-2.159V6.103zm10.277 7.243c0-1.005-.091-2.1-.613-2.956-.4-.651-1.074-1.242-1.872-1.242-1.165 0-2.73 1.094-2.73 4.258 0 2.837 1.165 4.02 2.7 4.02 1.472 0 2.515-1.272 2.515-4.08z"></path><path d="M24.99 15.444c0 .621 0 1.656.367 2.246a2.094 2.094 0 001.717.918c.89 0 1.719-.445 2.21-1.182.643-.946.706-1.952.706-3.047V12.34c0-1.596-.123-2.07-.552-2.07-.153 0-.307.06-.46.089-.185.06-.339.119-.553.119-1.012 0-1.35-.798-1.35-1.685 0-1.124.521-2.042 1.87-2.042 1.012 0 1.688.297 2.7.297.83 0 1.413-.297 2.179-.297.798 0 .982.327.982.977v8.868c0 1.775.215 2.071.553 2.071.305 0 .612-.207 1.012-.207 1.012 0 1.349.798 1.349 1.684 0 1.124-.52 2.04-1.809 2.04-.768 0-1.473-.295-2.178-.295-.675 0-1.35.295-1.935.295-.764 0-1.102-.502-1.102-.975v-1.182h-.063c-1.135 1.626-3.342 2.543-5.398 2.543-3.16 0-5.062-1.775-5.062-4.76v-5.47c0-1.803-.216-2.07-.553-2.07-.152 0-.306.06-.46.089-.185.06-.338.119-.551.119-1.013 0-1.35-.798-1.35-1.685 0-1.124.52-2.042 1.963-2.042.982 0 1.778.297 2.79.297.952 0 1.412-.297 2.179-.297.8 0 .8.563.8 1.331v7.362z"></path><path d="M49.304 18.814c-1.596 4.227-4.144 9.608-9.603 9.608-2.363 0-5.185-1.093-5.185-3.724 0-1.45 1.197-2.542 2.7-2.542 1.165 0 2.118.915 2.118 2.039 0 .206-.062.414-.094.621.246.147.43.235.736.235 1.074 0 2.455-1.625 2.455-2.6 0-.71-.859-2.72-1.197-3.46l-3.097-7.066c-.521-1.242-.675-1.507-1.105-1.507-.245 0-.46.059-.707.059-1.012 0-1.348-.798-1.348-1.686 0-1.123.52-2.04 1.81-2.04.92 0 1.963.297 3.005.297 1.106 0 2.178-.297 3.344-.297 1.197 0 1.78.682 1.78 1.775 0 .974-.491 1.183-.981 1.33-.492.117-1.013.117-1.013.65 0 .296.244.917.308 1.154l1.994 5.971h.06l1.994-5.706c.153-.384.399-1.063.399-1.448 0-.326-.428-.384-.858-.591-.43-.177-.89-.503-.89-1.39 0-.916.614-1.745 1.595-1.745.86 0 1.809.297 2.76.297 1.044 0 2.055-.297 3.13-.297 1.287 0 1.809.917 1.809 2.04 0 .888-.336 1.686-1.348 1.686-.277 0-.553-.118-.829-.118-.337 0-.614.207-1.074 1.419l-2.668 7.036z"></path><path d="M54.857 6.103c0-1.478-.06-2.1-.554-2.1-.307 0-.612.208-1.013.208-1.01 0-1.347-.798-1.347-1.686 0-1.153.52-2.07 1.808-2.07.8 0 1.628.297 2.453.297.923 0 1.813-.296 2.702-.296.735 0 1.013.444 1.013 1.596v5.085h.062c.949-1.3 2.452-1.98 4.233-1.98 4.416 0 5.98 4.316 5.98 7.924 0 4.05-1.962 8.336-6.748 8.336-2.024 0-3.864-.71-4.939-2.72l-.06.06.091.738c0 .947-.828 1.39-1.717 1.39-1.628 0-1.964-.74-1.964-2.159V6.103zm10.275 7.243c0-1.005-.09-2.1-.61-2.956-.401-.651-1.076-1.242-1.875-1.242-1.164 0-2.728 1.094-2.728 4.258 0 2.837 1.165 4.02 2.7 4.02 1.47 0 2.513-1.272 2.513-4.08z"></path><path d="M76.763 15.444c0 .621 0 1.656.37 2.246a2.089 2.089 0 001.715.918c.891 0 1.719-.445 2.21-1.182.644-.946.706-1.952.706-3.047V12.34c0-1.596-.124-2.07-.553-2.07-.153 0-.306.06-.459.089-.185.06-.34.119-.553.119-1.01 0-1.351-.798-1.351-1.685 0-1.124.522-2.042 1.874-2.042 1.011 0 1.686.297 2.697.297.83 0 1.414-.297 2.18-.297.796 0 .98.327.98.977v8.868c0 1.775.216 2.071.553 2.071.307 0 .613-.207 1.013-.207 1.014 0 1.348.798 1.348 1.684 0 1.124-.52 2.04-1.808 2.04-.768 0-1.473-.295-2.177-.295-.675 0-1.353.295-1.936.295-.764 0-1.102-.502-1.102-.975v-1.182h-.062c-1.135 1.626-3.343 2.543-5.399 2.543-3.16 0-5.063-1.775-5.063-4.76v-5.47c0-1.803-.214-2.07-.553-2.07-.15 0-.305.06-.458.089-.185.06-.338.119-.553.119-1.013 0-1.35-.798-1.35-1.685 0-1.124.52-2.042 1.964-2.042.981 0 1.778.297 2.792.297.95 0 1.41-.297 2.177-.297.798 0 .798.563.798 1.331v7.362z"></path><path d="M101.075 18.814c-1.593 4.227-4.141 9.608-9.603 9.608-2.36 0-5.182-1.093-5.182-3.724 0-1.45 1.197-2.542 2.7-2.542 1.164 0 2.117.915 2.117 2.039 0 .206-.062.414-.093.621.246.147.43.235.735.235 1.076 0 2.454-1.625 2.454-2.6 0-.71-.859-2.72-1.195-3.46l-3.098-7.066c-.52-1.242-.675-1.507-1.104-1.507-.246 0-.46.059-.708.059-1.012 0-1.348-.798-1.348-1.686 0-1.123.521-2.04 1.81-2.04.921 0 1.963.297 3.005.297 1.107 0 2.18-.297 3.344-.297 1.197 0 1.78.682 1.78 1.775 0 .974-.49 1.183-.982 1.33-.49.117-1.011.117-1.011.65 0 .296.246.917.307 1.154l1.994 5.971h.06l1.994-5.706c.152-.384.4-1.063.4-1.448 0-.326-.43-.384-.859-.591-.429-.177-.89-.503-.89-1.39 0-.916.614-1.745 1.596-1.745.86 0 1.808.297 2.762.297 1.04 0 2.053-.297 3.128-.297 1.288 0 1.808.917 1.808 2.04 0 .888-.336 1.686-1.348 1.686-.276 0-.553-.118-.829-.118-.337 0-.613.207-1.073 1.419l-2.67 7.036z"></path></g></svg>